<?xml version="1.0" encoding="UTF-8" standalone="no"?>
<svg
   xmlns:dc="http://purl.org/dc/elements/1.1/"
   xmlns:cc="http://creativecommons.org/ns#"
   xmlns:rdf="http://www.w3.org/1999/02/22-rdf-syntax-ns#"
   xmlns:svg="http://www.w3.org/2000/svg"
   xmlns="http://www.w3.org/2000/svg"
   xmlns:sodipodi="http://sodipodi.sourceforge.net/DTD/sodipodi-0.dtd"
   xmlns:inkscape="http://www.inkscape.org/namespaces/inkscape"
   height="514.8399"
   width="434.22003"
   version="1.1"
   viewBox="0 0 434.21864 514.83811"
   id="svg2"
   inkscape:version="0.91 r13725"
   sodipodi:docname="bassclef.svg">
  <metadata
     id="metadata19">
    <rdf:RDF>
      <cc:Work
         rdf:about="">
        <dc:format>image/svg+xml</dc:format>
        <dc:type
           rdf:resource="http://purl.org/dc/dcmitype/StillImage" />
        <dc:title>Bass Clef</dc:title>
      </cc:Work>
    </rdf:RDF>
  </metadata>
  <sodipodi:namedview
     pagecolor="#ffffff"
     bordercolor="#666666"
     borderopacity="1"
     objecttolerance="10"
     gridtolerance="10"
     guidetolerance="10"
     inkscape:pageopacity="0"
     inkscape:pageshadow="2"
     inkscape:window-width="847"
     inkscape:window-height="480"
     id="namedview17"
     showgrid="false"
     fit-margin-top="10"
     fit-margin-left="5"
     fit-margin-right="5"
     fit-margin-bottom="10"
     inkscape:zoom="0.47692184"
     inkscape:cx="217.11266"
     inkscape:cy="257.41565"
     inkscape:window-x="0"
     inkscape:window-y="0"
     inkscape:window-maximized="0"
     inkscape:current-layer="svg2" />
  <title
     id="title4">Bass Clef</title>
  <defs
     id="defs6">
    <linearGradient
       id="linearGradient3770"
       x1="-543.25"
       gradientUnits="userSpaceOnUse"
       x2="-190.88"
       gradientTransform="translate(729.67,-22.021)"
       y1="770.94"
       y2="231.09">
      <stop
         stop-opacity=".82639"
         offset="0"
         id="stop9" />
      <stop
         offset="1"
         id="stop11" />
    </linearGradient>
  </defs>
  <g
     transform="translate(-154.87736,-268.75579)"
     id="g13">
    <path
       d="m 190.85,451.25 c 11.661,14.719 32.323,24.491 55.844,24.491 36.401,0 65.889,-23.372 65.889,-52.214 0,-28.842 -29.488,-52.214 -65.889,-52.214 -20.314,4.1522 -28.593,9.0007 -33.143,-2.9091 17.976,-54.327 46.918,-66.709 96.546,-66.709 65.914,0 96.969,59.897 96.969,142.97 -18.225,190.63 -205.95,286.75 -246.57,316.19 5.6938,13.103 5.3954,12.631 5.3954,12.009 189.78,-86.203 330.69,-204.43 330.69,-320.74 0,-92.419 -58.579,-175.59 -187.72,-172.8 -77.575,0 -170.32,86.203 -118,171.93 z m 328.1,-89.88 c 0,17.852 14.471,32.323 32.323,32.323 17.852,0 32.323,-14.471 32.323,-32.323 0,-17.852 -14.471,-32.323 -32.323,-32.323 -17.852,0 -32.323,14.471 -32.323,32.323 z m 0,136.75 c 0,17.852 14.471,32.323 32.323,32.323 17.852,0 32.323,-14.471 32.323,-32.323 0,-17.852 -14.471,-32.323 -32.323,-32.323 -17.852,0 -32.323,14.471 -32.323,32.323 z"
       id="path15"
       inkscape:connector-curvature="0"
       style="fill:url(#linearGradient3770);fill-rule:evenodd;stroke:#000000" />
  </g>
</svg>
