<?xml version="1.0" encoding="UTF-8" standalone="no"?>
<svg xmlns:rdf="http://www.w3.org/1999/02/22-rdf-syntax-ns#" xmlns="http://www.w3.org/2000/svg" height="579.26" width="424.79" version="1.1" xmlns:cc="http://creativecommons.org/ns#" xmlns:dc="http://purl.org/dc/elements/1.1/" viewBox="0 0 424.7921 579.26044">
 <title>Bass Clef</title>
 <defs>
  <linearGradient id="linearGradient3770" x1="-543.25" gradientUnits="userSpaceOnUse" x2="-190.88" gradientTransform="translate(729.67,-22.021)" y1="770.94" y2="231.09">
   <stop stop-opacity=".82639" offset="0"/>
   <stop offset="1"/>
  </linearGradient>
 </defs>
 <g transform="translate(-159.3 -278.76)">
  <path stroke="#000" fill="url(#linearGradient3770)" d="m190.85 451.25c11.661 14.719 32.323 24.491 55.844 24.491 36.401 0 65.889-23.372 65.889-52.214s-29.488-52.214-65.889-52.214c-20.314 4.1522-28.593 9.0007-33.143-2.9091 17.976-54.327 46.918-66.709 96.546-66.709 65.914 0 96.969 59.897 96.969 142.97-18.225 190.63-205.95 286.75-246.57 316.19 5.6938 13.103 5.3954 12.631 5.3954 12.009 189.78-86.203 330.69-204.43 330.69-320.74 0-92.419-58.579-175.59-187.72-172.8-77.575 0-170.32 86.203-118 171.93zm328.1-89.88c0 17.852 14.471 32.323 32.323 32.323s32.323-14.471 32.323-32.323-14.471-32.323-32.323-32.323-32.323 14.471-32.323 32.323zm0 136.75c0 17.852 14.471 32.323 32.323 32.323s32.323-14.471 32.323-32.323-14.471-32.323-32.323-32.323-32.323 14.471-32.323 32.323z" fill-rule="evenodd"/>
 </g>
 <g transform="translate(0 -4)">
  <path d="m29.294 546.98q-4.2468 0-7.0636 3.2068-2.7734 3.1634-2.7734 8.0603 0 5.0269 2.7734 8.2336 2.7734 3.1635 7.0636 3.1635t7.0636-3.2068q2.8168-3.2068 2.8168-8.1903 0-4.8535-2.8168-8.0603-2.817-3.21-7.064-3.21zm-9.577-5.3302q2.0801-1.8201 4.9402-2.8601t5.9802-1.04q9.0137 0 14.734 5.9802 5.7636 5.9369 5.7636 15.254 0 8.4936-5.8502 14.214-5.8502 5.6769-14.734 5.6769-4.2035 0-7.3236-1.43-3.0768-1.4734-5.0269-4.3768v2.8601q0 0.86669-0.69336 1.3867-0.65002 0.47669-1.8634 0.47669h-6.6736q-2.9468 0-4.2035-1.0834-1.2134-1.1267-1.2134-3.7268 0-2.2968 1.17-3.4668 1.2134-1.2134 3.5535-1.2134h0.69336v-37.615h-0.69336q-2.3401 0-3.5968-1.2134-1.2134-1.2567-1.2134-3.5968 0-2.5568 1.2567-3.6835t4.2468-1.1267h8.1036q1.3867 0 1.9934 0.69336 0.65002 0.65003 0.65002 2.1668v17.724z"/>
  <path d="m98.587 568.3h0.69336q2.3401 0 3.5535 1.2567 1.2567 1.2134 1.2567 3.5101 0 2.5134-1.3 3.6401-1.2567 1.0834-4.2035 1.0834h-4.0735q-2.1667 0-3.2501-0.82337-1.04-0.82336-1.7334-2.9901-3.5968 2.3834-7.627 3.6401t-8.147 1.2567q-6.9769 0-10.964-3.4668-3.9868-3.4668-3.9868-9.4904 0-6.5002 5.1569-10.097t14.474-3.5968q2.0801 0 4.4202 0.21668 2.3401 0.21667 5.2435 0.69336v-0.82337q0-3.9002-1.9067-5.9369-1.8634-2.0367-5.5469-2.0367-2.8601 0-7.3236 2.1234-4.4202 2.1234-6.5002 2.1234-2.0367 0-3.2935-1.17-1.2567-1.2134-1.2567-3.1634 0-3.5101 5.1135-5.5469 5.1569-2.0801 13.997-2.0801 9.2303 0 13.217 3.5535 3.9868 3.5535 3.9868 12.047v16.077zm-10.487-8.36q-2.1667-0.47668-3.9868-0.69335-1.8201-0.26001-3.3801-0.26001-4.7668 0-7.4969 1.6034-2.6868 1.6034-2.6868 4.4202 0 2.5134 1.7334 3.8568 1.7334 1.3 4.9835 1.3 2.9901 0 5.6335-0.8667t5.2002-2.6868v-6.6736z"/>
  <path d="m122.85 577.18q-1.1267 0.8667-2.3401 1.3-1.17 0.47668-2.4268 0.47668-1.8634 0-2.6434-0.9967-0.73669-0.99671-0.73669-3.7268v-5.7636q0-2.8601 0.95337-4.0302 0.95337-1.2134 3.2934-1.2134 2.5568 0 4.1602 2.4701 0.95337 1.3434 1.6034 1.9934 2.1234 1.9067 4.9402 2.8601 2.8168 0.95337 6.4136 0.95337 3.1201 0 4.9835-1.2134t1.8634-3.1634q0-3.5101-10.01-4.8535-2.2101-0.26001-3.4668-0.47668-7.5403-1.04-11.224-4.0735-3.6835-3.0768-3.6835-8.2336 0-6.1102 4.4202-9.447t12.61-3.3368q2.8168 0 5.7636 0.47668 2.9901 0.43335 6.1102 1.3867 0.91003-1.0834 1.9067-1.6034 1.04-0.52002 2.2968-0.52002 1.7767 0 2.6868 1.1267 0.95336 1.0834 0.95336 3.2935v5.3302q0 1.8634-0.95336 2.9034-0.95337 0.99671-2.6868 0.99671-1.7767 0-6.1102-3.0768-4.2902-3.1201-8.6237-3.1201-3.3801 0-5.2435 1.1267-1.8634 1.0834-1.8634 3.0334 0 3.0334 7.8003 4.0735 2.2534 0.26001 3.5535 0.43335 9.7937 1.43 13.434 4.2902 3.6835 2.8168 3.6835 8.407 0 6.5436-4.8535 10.14-4.8102 3.5535-13.694 3.5535-3.4668 0-6.6736-0.47668-3.2068-0.43335-6.1969-1.3z"/>
  <path d="m176.07 577.18q-1.1267 0.8667-2.3401 1.3-1.17 0.47668-2.4268 0.47668-1.8634 0-2.6434-0.9967-0.73669-0.99671-0.73669-3.7268v-5.7636q0-2.8601 0.95337-4.0302 0.95337-1.2134 3.2935-1.2134 2.5568 0 4.1602 2.4701 0.95337 1.3434 1.6034 1.9934 2.1234 1.9067 4.9402 2.8601 2.8168 0.95337 6.4136 0.95337 3.1201 0 4.9835-1.2134t1.8634-3.1634q0-3.5101-10.01-4.8535-2.2101-0.26001-3.4668-0.47668-7.5403-1.04-11.224-4.0735-3.6835-3.0768-3.6835-8.2336 0-6.1102 4.4202-9.447t12.61-3.3368q2.8168 0 5.7636 0.47668 2.9901 0.43335 6.1102 1.3867 0.91003-1.0834 1.9067-1.6034 1.04-0.52002 2.2968-0.52002 1.7767 0 2.6868 1.1267 0.95337 1.0834 0.95337 3.2935v5.3302q0 1.8634-0.95337 2.9034-0.95337 0.99671-2.6868 0.99671-1.7767 0-6.1102-3.0768-4.2902-3.1201-8.6237-3.1201-3.3801 0-5.2435 1.1267-1.8634 1.0834-1.8634 3.0334 0 3.0334 7.8003 4.0735 2.2534 0.26001 3.5535 0.43335 9.7937 1.43 13.434 4.2902 3.6835 2.8168 3.6835 8.407 0 6.5436-4.8535 10.14-4.8102 3.5535-13.694 3.5535-3.4668 0-6.6736-0.47668-3.2068-0.43335-6.1969-1.3z"/>
  <path d="m253.6 540.09q0.52002-1.6901 1.6034-2.5134 1.1267-0.86669 2.8601-0.86669 2.3401 0 3.3368 1.43 0.9967 1.3867 0.9967 4.8535v7.1069q0 2.6434-1.0834 3.9001t-3.3368 1.2567q-1.6034 0-2.6868-0.7367-1.0834-0.73669-2.2968-2.8168-1.7334-2.9468-4.5502-4.3335-2.8168-1.4301-6.8903-1.4301-5.0702 0-8.3203 3.3368-3.2068 3.2935-3.2068 8.4503 0 5.4169 3.3368 8.7103 3.3368 3.2935 8.9703 3.2935 5.1135 0 10.14-2.8168 5.0702-2.8601 6.1969-2.8601 1.6034 0 2.6434 1.2567 1.0834 1.2134 1.0834 3.0768 0 4.0735-6.1969 7.2803-6.1536 3.2068-14.647 3.2068-10.487 0-17.074-5.8936-6.5436-5.8936-6.5436-15.167 0-9.057 6.5002-15.081 6.5002-6.0236 16.381-6.0236 3.3368 0 6.5002 0.82336t6.2836 2.5568z"/>
  <path d="m299.27 568.3h9.317q2.9901 0 4.2035 1.0834t1.2134 3.5968q0 2.5568-1.2567 3.6835-1.2134 1.1267-4.1602 1.1267h-29.381q-2.9034 0-4.1602-1.1267-1.2134-1.1267-1.2134-3.6835t1.17-3.5968q1.2134-1.0834 4.2035-1.0834h9.317v-37.615h-4.7668q-2.9468 0-4.2468-1.1267-1.2567-1.17-1.2567-3.6835 0-2.5568 1.2567-3.6835t4.2468-1.1267h12.957q1.2134 0 1.8634 0.52002 0.69336 0.47669 0.69336 1.3434v45.372z"/>
  <path d="m335.37 560.32q1.1267 4.8102 4.3335 7.1936 3.2501 2.3834 8.6236 2.3834t10.617-2.6001q5.2435-2.6434 6.3269-2.6434 1.6034 0 2.6001 1.2134 1.04 1.17 1.04 3.0334 0 4.0735-6.0236 7.0203t-14.907 2.9468q-10.487 0-17.074-5.8936-6.5436-5.8936-6.5436-15.167 0-9.2304 6.5436-15.124 6.5869-5.8936 17.074-5.8936 9.3604 0 15.514 5.5469 6.1536 5.5035 6.1536 13.521 0 2.5568-1.2567 3.5101-1.2134 0.95337-5.0702 0.95337h-27.951zm23.358-6.7602q-0.73669-4.0302-3.8135-6.2402-3.0334-2.2101-7.9303-2.2101-4.7235 0-7.627 2.1234-2.8601 2.0801-3.9868 6.3269h23.358z"/>
  <path d="m403.15 539h9.317q2.9901 0 4.2468 1.1267 1.2567 1.0834 1.2567 3.5968t-1.3 3.6401q-1.2567 1.1267-4.2035 1.1267h-9.317v19.804h8.6237q2.9901 0 4.2468 1.0834t1.2567 3.5968q0 2.5568-1.3 3.6835-1.2567 1.1267-4.2035 1.1267h-23.878q-2.9901 0-4.2468-1.1267t-1.2567-3.6835q0-2.5134 1.2134-3.5968 1.2567-1.0834 4.2902-1.0834h4.5935v-19.804h-4.5935q-2.9901 0-4.2468-1.1267t-1.2567-3.6401q0-2.5568 1.2134-3.6401 1.25-1.08 4.29-1.08h4.5935v-2.4701q0-8.4937 4.3768-12.047 4.3768-3.5968 14.907-3.5968 5.4602 0 8.017 1.3 2.6001 1.3 2.6001 4.0302 0 1.8201-1.17 2.9034-1.1267 1.0834-3.0768 1.0834-1.43 0-4.0735-0.39001-2.6001-0.39002-3.6401-0.39002-4.0302 0-5.6769 1.8201-1.6034 1.7767-1.6034 6.3269v1.4301z"/>
 </g>
</svg>
