<?xml version="1.0" encoding="UTF-8" standalone="no"?>
<svg xmlns:rdf="http://www.w3.org/1999/02/22-rdf-syntax-ns#" xmlns="http://www.w3.org/2000/svg" height="479.39" width="539.31" version="1.1" xmlns:cc="http://creativecommons.org/ns#" xmlns:dc="http://purl.org/dc/elements/1.1/" viewBox="0 0 539.31312 479.38532">
 <path d="m79.899 39.947q0 22.471-19.974 34.331v395.12q0 4.0573-2.965 7.0223t-7.0223 2.965h-19.974q-4.0573 0-7.0223-2.965t-2.965-7.0223v-395.12q-19.978-11.86-19.978-34.331 0-16.541 11.704-28.245t28.245-11.704 28.245 11.704 11.704 28.245zm459.41 19.974v238.13q0 7.8025-3.9013 12.016-3.9013 4.2134-12.328 8.5828-67.102 36.204-115.16 36.204-19.038 0-38.544-6.8662t-33.863-14.981q-14.357-8.1146-36.048-14.981-21.691-6.8662-44.474-6.8662-59.926 0-144.81 45.567-5.3057 2.8089-10.299 2.8089-8.1146 0-14.045-5.9299-5.9344-5.9288-5.9344-14.045v-231.58q0-9.9872 9.6751-17.166 6.5541-4.3694 24.656-13.42 73.657-37.452 131.4-37.452 33.395 0 62.42 9.0509t68.349 27.465q11.86 5.9299 27.465 5.9299 16.853 0 36.672-6.5541 19.818-6.5541 34.331-14.669 14.513-8.1146 27.465-14.669 12.952-6.5541 17.009-6.5541 8.1146 0 14.045 5.9299 5.9299 5.9299 5.9299 14.045z"/>
</svg>
