<?xml version="1.0" encoding="UTF-8" standalone="no"?>
<svg xmlns:rdf="http://www.w3.org/1999/02/22-rdf-syntax-ns#" height="193.9" xmlns="http://www.w3.org/2000/svg" viewBox="0 0 205.61421 193.89565" width="205.61" version="1.0" xmlns:cc="http://creativecommons.org/ns#" xmlns:dc="http://purl.org/dc/elements/1.1/">
 <g stroke="#fff" stroke-width="2" transform="translate(741.3 -461.8)">
  <g fill-rule="evenodd">
   <path d="m-700.02 622.52s35.1-116.67 68.34-150.35c13.84-14.02 30.89-9.12 35.68-5.55 13.87 10.31 18.98 25.17 26.49 37.73-22.01-5.32-14.63-15.61-38.86-13.48l14.39 132.23-106.04-0.58z"/>
   <path d="m-701.36 640.34c31.03 3.14 68.81-1.9 117.9 1.37 13.51 0.9 30.69 1.03 44.03-9.14 2.38-1.81 6.28-7.04-4.05-8.68-2.88-1.04-2.87 5.28-29.23 1.92-34.21-4.36-68.59-16.23-98.08-18.64-29.5-2.41-54.36-2.55-66.18 10.97-10.53 12.03 4.58 19.06 35.61 22.2z"/>
   <path d="m-702.86 612.35c-9.67 0.34-19.66 0.63-28.76 4.78-3.31 1.4-5.84 4.47-7.17 8.28-1.99 4.31-1.6 10.12 1.56 13.55 5.52 6.28 13.3 8.49 20.52 10.6 23.7 6.33 48.22 4.42 72.34 3.72 21.03-0.78 42.11-0.63 63.09 1.41 26.26-1.11 36.13-6.74 42.59-22.55-17.11 6.21-19.27 10.51-50.75 4.34-25.62-6.45-50.31-17.84-76.37-21.8-12.27-1.55-24.68-2.5-37.05-2.33z"/>
  </g>
  <path d="m-608.18 491.51c-1.24-3.43-2.7-6.9-1.35-8.76 1.75-2.41 5.96-3.4 4.04 2.98" fill="none"/>
 </g>
</svg>
