<?xml version="1.0" encoding="UTF-8" standalone="no"?>
<svg xmlns:rdf="http://www.w3.org/1999/02/22-rdf-syntax-ns#" xmlns="http://www.w3.org/2000/svg" height="240.26" width="311.43" version="1.1" xmlns:cc="http://creativecommons.org/ns#" xmlns:dc="http://purl.org/dc/elements/1.1/" viewBox="0 0 311.42947 240.25975">
 <defs>
  <filter id="filter4842" style="color-interpolation-filters:sRGB" height="1.1116" width="1.3393" y="-.055818" x="-.16966">
   <feGaussianBlur stdDeviation="1.4232833"/>
  </filter>
 </defs>
 <g transform="translate(-5.4997 -807.06)">
  <g transform="translate(-62.558,510.63)">
   <g transform="translate(-2.9368,13.576)">
    <path d="m195.39 471.22 7.3577 20.128s-13.651 15.371-21.285 21.828c-3.8633 3.2674-7.7665 6.7729-12.319 8.4831-3.7237 1.399-7.8166 1.6909-11.792 1.2776-4.3507-0.45222-6.7002-0.99753-12.802-4.0701-3.6099-1.818-9.8302-7.9254-9.8302-7.9254l25.432-2.2294c1.4693 4.6771 6.8701 3.2286 8.701 1.1825l10.727-11.988c1.5478-1.7298 1.2384-7.991-1.1673-10.85-2.4057-2.8588-6.7669-3.3461-9.4836-1.6362s-3.7451 8.609-3.7451 8.609-2.6334-0.86775-2.6759-6.3109c-0.0398-5.1031 2.046-9.0085 6.2792-12.006 1.5083-1.0679 3.0284-2.2137 4.7397-2.7526 6.9909-2.2016 21.866-1.7389 21.866-1.7389z"/>
    <path fill="#fff" d="m190.99 500.01-20.863 18.574s1.7053-4.8854 8.5078-10.911c6.8028-6.0256 12.355-7.6632 12.355-7.6632z"/>
    <path d="m313.23 82.703-4.1043 5.2767s2.2147 14.636 1.6333 24.084c-0.58139 9.4477-1.3081 11.192-3.7791 15.843-2.4709 4.6512-5.3779 16.279-4.7965 15.988 0.5814-0.2907 20.058-21.657 20.058-21.657z" transform="matrix(-.14045 -.87097 -.71284 .11495 301.53 730.34)" filter="url(#filter4842)" stroke="#fff" stroke-width="1px" fill="none"/>
    <path d="m275.9 421.49 62.603 61.291 8.516 2.4391 0.78676-0.76702-2.4354-9.2438-60.374-61.928z"/>
    <path d="m275.84 398.27s12.476 1.6833 16.551 0.91646c4.0751-0.76676 35.455-7.2237 43.509-9.4136 8.0537-2.1893 24.209-6.2402 30.069-6.2639 5.8594-0.0241 16.455 0.26039 16.455 0.26039s-13.329 7.3205-25.83 11.169c-12.5 3.8481-43.129 10.865-49.73 12.674-6.6021 1.8084-22.005 6.4185-22.005 6.4185z"/>
    <path fill="#fff" d="m330.51 398.85 29.408-7.5538s-11.318 0.67374-16.417 2.0983c-5.099 1.4248-12.992 5.4553-12.992 5.4553z"/>
    <path d="m271.33 417.81s27.693 9.9569 31.007 10.238c3.3136 0.28073 4.9816-1.7324 7.0547-3.248 2.0732-1.5156 6.3467-5.7565 6.3467-5.7565s2.457 10.597 4.8582 12.775c2.4012 2.1782 1.8826 2.0925 4.6713 1.2054 2.7887-0.88711 8.3815-8.7546 8.3815-8.7546s2.1577 10.416 3.6354 12.133c1.4777 1.7173 2.7337 1.9116 5.4674 0.93709 2.7338-0.97453 7.946-7.9849 7.946-7.9849l2.718 9.9146s1.0592 2.3979 2.7296 3.0456c1.6703 0.64768 3.2235 0.67298 5.683-1.1962s6.0168-10.332 6.0168-10.332l-1.3677-0.74694-8.6982 8.5259s-1.9358-10.666-4.1782-12.897c-2.2425-2.2311-1.884-2.0196-4.6713-1.2054-2.7873 0.81419-8.0146 8.4275-8.0146 8.4275s-2.6235-9.9044-4.3526-12.169c-1.7291-2.2649-2.3826-2.1007-3.7124-2.1994s-2.4474 1.2341-2.4474 1.2341-4.7303 6.3404-6.2199 8.278-4.0814-12.178-5.2867-13.697c-1.2053-1.5197-1.6387-1.9722-4.6713-1.2054-3.0326 0.76684-10.223 9.4831-10.223 9.4831l-5.485-1.9136 1.1246-11.246-11.544-2.1838z"/>
    <path fill="#fff" d="m166.34 297.81c0.53444 0.98259-6.2102 5.9123-7.2823 24.894-1.2258 21.703 6.3393 40.993 11.395 58.861 5.056 17.867 7.3932 25.403 11.074 38.838 3.6812 13.435 8.2228 32.414 8.2228 32.414l22.402-8.8722-7.4358-32.58s-1.8176 0.72081-2.9174-2.8252 0.31113-4.1554 0.31113-4.1554-2.2919-10.424-4.6045-24.893c-1.0902-6.8222-3.3221-23.053-8.349-39.909-3.716-12.46-6.1048-20.6-13.119-29.114-7.0138-8.5142-9.698-12.658-9.698-12.658z"/>
    <path d="m166.34 297.81c0.53444 0.98262-6.2102 5.9124-7.2824 24.895-1.2257 21.703 6.3395 40.994 11.395 58.861 5.0561 17.868 7.3934 25.403 11.074 38.837 3.6812 13.435 8.2229 32.414 8.2229 32.414l22.402-8.8723-7.4359-32.58s-1.8176 0.72081-2.9174-2.8252c-1.0999-3.546 0.31113-4.1554 0.31113-4.1554s-2.292-10.424-4.6045-24.893c-1.0903-6.8222-3.3222-23.053-8.3489-39.908-3.7159-12.46-6.1047-20.599-13.119-29.114-7.0139-8.5144-9.6981-12.659-9.6981-12.659z"/>
    <path fill="#fff" d="m255.92-106.89 1.2333 26.414 2.3639-0.30833z" transform="matrix(.23647 .76239 .76239 -.23647 201.72 192.57)"/>
    <path fill="#fff" d="m162.33 325.83 4.9664 30.412s1.6383-6.3489 0.48842-13.38c-1.1499-7.0302-5.4548-17.033-5.4548-17.033z"/>
    <path d="m310.57 314.88-37.746-25.083-16.894-6.9474-5.7571 7.9515 10.344 11.042 18.976 5.7463s7.0504 3.1828 8.2336 7.5035-0.0899 7.1408-1.4904 9.4333l-1.2005 1.965-4.7125-3.3286-0.63591 5.458 4.8762 3.4287s3.1375-5.5039 5.2663-4.2034-0.88111 7.3317-0.88111 7.3317l18.213 10.677z"/>
    <path fill="#fff" d="m71.001 363.57s-0.34874 14.428 4.0685 19.769c4.4174 5.3412 112.33 92.821 112.33 92.821l16.241-23.698-21.557-16.574s-3.7038 4.6132-5.7213 3.6142c-2.0174-0.99909 0.24054-7.2277 0.24054-7.2277l-2.8921 5.4795-2.6516-1.7482 0.34875-7.1564-3.0004 5.4081-2.6516-1.7482 0.457-7.085-3.1086 5.3368-2.6516-1.7482 0.5652-7.0137-3.2168 5.2654-2.6516-1.7482 0.67344-6.9423-3.325 5.1941-2.6516-1.7482 0.78165-6.871-3.4332 5.1228-2.6516-1.7482 0.88985-6.7996-3.5414 5.0514-2.6516-1.7482 0.9981-6.7283-3.6497 4.98-2.6516-1.7482 1.1063-6.6569-3.7579 4.9087-2.6516-1.7482 1.2145-6.5856-3.8662 4.8373-2.6516-1.7482 1.3228-6.5142-3.9744 4.766-2.6516-1.7482 1.431-6.4428-4.0826 4.6946-2.6516-1.7482 1.5392-6.3715-4.1908 4.6233-2.6516-1.7482 1.6474-6.3001-4.299 4.5519-2.6516-1.7482 1.7556-6.2288-4.4072 4.4806-2.6516-1.7482 1.8638-6.1575-4.5155 4.4092-2.6516-1.7482 1.9721-6.0861-4.6237 4.3379-2.6516-1.7482 2.0803-6.0148-4.7319 4.2665-2.6516-1.7482 2.3261-5.8527z"/>
    <path d="m71.001 363.57s-0.34874 14.428 4.0685 19.769c4.4174 5.3412 112.33 92.821 112.33 92.821l16.241-23.698-21.557-16.574s-3.7038 4.6132-5.7213 3.6142c-2.0174-0.99909 0.24054-7.2277 0.24054-7.2277l-2.8921 5.4795-2.6516-1.7482 0.34875-7.1564-3.0004 5.4081-2.6516-1.7482 0.457-7.085-3.1086 5.3368-2.6516-1.7482 0.5652-7.0137-3.2168 5.2654-2.6516-1.7482 0.67344-6.9423-3.325 5.1941-2.6516-1.7482 0.78165-6.871-3.4332 5.1228-2.6516-1.7482 0.88985-6.7996-3.5414 5.0514-2.6516-1.7482 0.9981-6.7283-3.6497 4.98-2.6516-1.7482 1.1063-6.6569-3.7579 4.9087-2.6516-1.7482 1.2145-6.5856-3.8662 4.8373-2.6516-1.7482 1.3228-6.5142-3.9744 4.766-2.6516-1.7482 1.431-6.4428-4.0826 4.6946-2.6516-1.7482 1.5392-6.3715-4.1908 4.6233-2.6516-1.7482 1.6474-6.3001-4.299 4.5519-2.6516-1.7482 1.7556-6.2288-4.4072 4.4806-2.6516-1.7482 1.8638-6.1575-4.5155 4.4092-2.6516-1.7482 1.9721-6.0861-4.6237 4.3379-2.6516-1.7482 2.0803-6.0148-4.7319 4.2665-2.6516-1.7482 2.3261-5.8527z"/>
    <g fill="#fff">
     <path d="m255.92-106.89 1.2333 26.414 2.3639-0.30833z" transform="matrix(.7215 .34144 .34144 -.7215 25.828 293.14)"/>
     <path d="m78.83 383.1 24.176 19.106s-3.0719-5.7928-8.6621-10.208c-5.5902-4.4157-15.515-8.8983-15.515-8.8983z"/>
     <path stroke-width="2" d="m281.28 390.68 7.6134 17.766s36.507-40.475 44.715-51.53c8.2084-11.055 0.54843-30.954 0.54843-30.954l-56.808 55.063z" stroke="#000"/>
    </g>
    <path d="m187.97 454.65c4.2375-5.602 111.69-129.65 120.88-136.94 9.1929-7.2957 9.2851-5.9276 14.111-6.1928 4.8259-0.26518 9.1311 1.4937 12.967 4.0648s9.0256 10.856 9.0256 10.856-60.812 63.889-60.006 66.757c0.80595 2.8682 4.8978 14.879 4.8978 14.879s-62.481 77.495-73.812 80.176c-11.33 2.6801-11.808 2.1901-16.715 0.45689-4.9067-1.7332-8.1446-3.8203-11.031-9.4134-2.8868-5.5931-4.5534-19.038-0.31598-24.64z"/>
    <path d="m1450.8 617.84c-17.69 3.7903-31.697 17.158-45.446 28.386-87.277 69.988-173.59 141.38-258.46 214.43-8.0385 13.453-7.7753 31.308-0.3125 44.844 11.659 15.341 35.789 15.189 50.125 3.5625 32.746-22.089 62.654-48.072 93.019-73.363 19.174-16.323 38.207-33.062 56.981-49.887-1.6686-11.182-6.5954-23.43-1.625-34.375 21.879-23.972 49.557-41.658 74.276-62.577 20.93-16.406 41.938-32.695 63.068-48.86-5.5302-12.123-17.685-22.813-31.625-22.156z" transform="matrix(.48302 -.07789 .07789 .48302 -428.38 132.05)" stroke="#000"/>
    <g fill="#fff">
     <path d="m190.99 500.01-20.863 18.574s1.7053-4.8854 8.5078-10.911c6.8028-6.0256 12.355-7.6632 12.355-7.6632z"/>
     <path d="m273.35 293.21 22.895 15.178s-5.1474-0.50197-12.583-5.4579c-7.4356-4.9562-10.313-9.7206-10.313-9.7206z"/>
     <path d="m330.74 474.4 16.56 10.827s-5.1522-4.9602-8.0861-6.7966c-2.9341-1.8364-8.4734-4.0306-8.4734-4.0306z"/>
     <path d="m348.3 484.23-11.353-16.477s2.9994 6.7641 5.0383 9.5992c2.0391 2.8352 6.315 6.8782 6.315 6.8782z"/>
    </g>
   </g>
  </g>
 </g>
</svg>
