<?xml version="1.0" encoding="UTF-8" standalone="no"?>
<svg xmlns:rdf="http://www.w3.org/1999/02/22-rdf-syntax-ns#" xmlns="http://www.w3.org/2000/svg" enable-background="new 0 0 512 512" xml:space="preserve" height="511" width="505.42" version="1.1" y="0px" x="0px" xmlns:cc="http://creativecommons.org/ns#" xmlns:dc="http://purl.org/dc/elements/1.1/" viewBox="0 0 505.41827 510.99896"><g transform="translate(-3.2907 -.49973)"><path d="m194.73 246.88h121.77c33.9 0 60.956-27.908 60.956-61.95v-116.08c0-33.035-27.87-57.855-60.956-63.371-20.943-3.484-42.673-5.069-63.51-4.971-20.845 0.097-40.74 1.874-58.258 4.971-51.586 9.117-60.952 28.191-60.952 63.371v46.463h121.91v15.486h-121.91-45.75c-35.434 0-66.459 21.295-76.158 61.808-11.192 46.435-11.694 75.409 0 123.9 8.666 36.088 29.359 61.807 64.79 61.807h41.917v-55.699c0-40.239 34.809-75.73 76.153-75.73zm-7.67-162.55c-12.636 0-22.877-10.355-22.877-23.161 0-12.849 10.241-23.3 22.877-23.3 12.594 0 22.873 10.451 22.873 23.3 0 12.807-10.278 23.161-22.873 23.161zm312.31 108.27c-8.761-35.27-25.484-61.808-60.96-61.808h-45.75v54.134c0 41.972-35.582 77.292-76.158 77.292h-121.77c-33.349 0-60.952 28.547-60.952 61.954v116.08c0 33.037 28.726 52.476 60.952 61.943 38.589 11.353 75.59 13.409 121.77 0 30.688-8.876 60.956-26.764 60.956-61.943v-46.461h-121.77v-15.486h121.77 60.952c35.431 0 48.638-24.715 60.96-61.807 12.722-38.186 12.179-74.911 0-123.9zm-175.19 232.17c12.64 0 22.873 10.356 22.873 23.156 0 12.85-10.233 23.305-22.873 23.305-12.595 0-22.877-10.455-22.877-23.305 0-12.8 10.282-23.156 22.877-23.156z"/></g></svg>
