<?xml version="1.0" encoding="UTF-8" standalone="no"?>
<svg xmlns:rdf="http://www.w3.org/1999/02/22-rdf-syntax-ns#" xmlns="http://www.w3.org/2000/svg" height="459.62" width="603.61" version="1.0" xmlns:cc="http://creativecommons.org/ns#" xmlns:dc="http://purl.org/dc/elements/1.1/" viewBox="0 0 603.61 459.62296">
 <g transform="translate(-104.98 -212.01)">
  <path d="m543.58 665.64c-1-3.3-7.69-25.77-14.86-49.94l-13.04-43.96 15.02-18.21c8.25-10.02 15.01-20.96 15.01-24.32 0-10.41-16.01-6.34-33.35 8.48-18.87 16.13-38.51 18.99-38.51 5.61 0-4.71 6.38-16.03 14.18-25.15 7.8-9.13 14.27-18.21 14.37-20.18 0.43-7.88-13.15-2.9-24.12 8.84-18.18 19.46-34.97 26.74-44.91 19.47-7.49-5.47-6.24-8.23 13.73-30.44 19.7-21.92 26.9-35 19.24-35-1.49 0-14.62 9.7-29.18 21.56-28.46 23.18-51.9 28.65-57.73 13.47-2.21-5.75 3.35-13.75 19.31-27.8 21.3-18.74 28.28-31.18 17.49-31.18-2.72 0-15.67 8.48-28.78 18.85-28.19 22.28-40.89 27.14-50.36 19.28-10.6-8.8-8.88-12.71 17-38.59 13.17-13.17 23.95-26 23.95-28.51 0-10.18-16.88-3.47-36.31 14.43-21.06 19.42-39.49 27.31-52.3 22.39-11.25-4.32-8.8-10.12 14.36-33.94 11.86-12.2 21.56-25.21 21.56-28.91 0-9-18.69-21.65-31.96-21.65-8.96 0-11.97 4.66-18.85 29.18-10.84 38.62-19.08 41.82-56.18 21.82-53.51-28.86-113.38-96-113.38-127.15 0.001-12.34 22.89-30.9 64.21-52.07 31.91-16.35 37.27-17.54 87.27-19.35 45.96-1.67 56.33-0.58 75.45 7.88 12.2 5.39 22.18 12.75 22.18 16.35 0 3.59-7.55 19.06-16.77 34.38-9.22 15.31-16.76 30.85-16.76 34.52 0 6.25 26.45 25.64 35.03 25.68 2.14 0.01 10.17-13.83 17.85-30.76 13.36-29.48 26.44-41.12 38.09-33.92 8.79 5.43 5.36 49-5.65 71.65-10.64 21.9-9.5 32.41 2.45 22.5 3.6-3 10.34-13.83 14.96-24.08 8.55-18.96 26.53-32.91 35.37-27.44 11.83 7.31 11.06 31.38-1.93 60.32-14.23 31.71-11.71 44.11 4.51 22.16 21.16-28.65 26.25-33.98 29.44-30.8 5.62 5.6-21.41 49.57-50.9 82.79-15.51 17.48-28.2 32.75-28.2 33.94 0 7.36 13.54-1.04 36.18-22.45 25.57-24.18 50.05-65.75 50.05-84.99 0-5.28 2.17-10.94 4.82-12.58 9.31-5.75 11.02 13.6 3.09 35-9.85 26.57-7.44 30.36 6.94 10.91 13.26-17.94 20.19-18.58 27.48-2.56 4.6 10.08 3.9 15.42-4.02 30.94-17.23 33.79-8.8 46.99 10.75 16.81 5.95-9.18 13.37-16.73 16.48-16.76 9.49-0.1 12.53 19.42 6.08 38.97-3.36 10.18-4.56 20.05-2.67 21.93 4.65 4.66 12.32-8.28 12.41-20.93 0.07-9.39 3.28-10.5 37.2-12.89 20.42-1.43 44.11-4.06 52.64-5.83 20.34-4.22 39.58 0.87 39.58 10.49 0 4.21-21.72 29.39-48.27 55.96-41.69 41.72-51.23 54.4-70.06 93.11-21.61 44.42-31.38 58.66-40.25 58.66-2.53 0-5.42-2.7-6.43-5.99zm29-54.25c2.71-10.82-19.48-40.37-30.33-40.37-7.77 0-7.72 0.95 1.82 30.5 4.37 13.53 8.84 27.83 9.93 31.78 1.6 5.82 3.32 5.36 9.03-2.39 3.88-5.27 8.17-14.06 9.55-19.52zm16.25-37.8c0-3.86-4.31-9.33-9.58-12.15-10.79-5.77-11.82-3.55-4.63 9.9 5.85 10.93 14.21 12.25 14.21 2.25zm19.16-31.71c0-5.69-24.16-15.37-28.21-11.3-4.11 4.13 18.67 21.82 23.92 18.58 2.36-1.46 4.29-4.74 4.29-7.28zm27.41-21.95c1.87-5.6-3.13-7.81-29.81-13.19l-14.37-2.9 14.37 12.08c14.71 12.37 26.5 13.95 29.81 4.01zm-87.45-36.67c7.98-13.01 7.96-13.29-0.57-7.74-4.87 3.17-16.24 15.72-25.26 27.88l-16.41 22.11 16.98-14.37c9.34-7.9 20.7-20.45 25.26-27.88zm119.34-1.53c8.8-12.08 8.8-12.29 0-9.82-4.95 1.38-21.93 4.12-37.74 6.07l-28.75 3.55 19.17 6.05c28.32 8.96 37.34 7.84 47.32-5.85zm-173.78-3.09c8.8-6.7 30.06-46.33 26.67-49.72-2.26-2.26-18.77 18.31-34.27 42.7-8.78 13.82-5.41 16.93 7.6 7.02zm-82.55-63.33c14.6-16.63 39.01-60.64 45.82-82.62 2.4-7.71 1.4-10.77-3.5-10.77-3.77 0-13.5 13.47-21.61 29.94-8.12 16.46-23.51 41.64-34.19 55.95-10.69 14.31-19.44 27.86-19.44 30.11 0 7.08 17.24-4.76 32.92-22.61zm-49.05-31.9c15.95-16.99 44.88-72.62 44.88-86.29 0-14.23-9.4-14.64-14.7-0.64-10.42 27.49-34 70.03-53.3 96.15-18.34 24.83-18.8 26.14-5.89 16.85 7.7-5.55 20.76-17.28 29.01-26.07zm-103.92-4.3c4.14-11.7 12.42-29.89 18.4-40.43 27.73-48.82 36.61-63.39 47.71-78.25 15.39-20.61 10.84-24.99-30.41-29.26-37.87-3.92-70.49 0.39-107.44 14.18-25.82 9.64-57.34 30.46-52.53 34.7 1.32 1.16 21.26 14.3 44.32 29.2 23.05 14.9 41.91 28.97 41.91 31.27s-3.14 6.78-6.97 9.97c-5.67 4.7-12.17 2.07-34.65-14.03-30.06-21.52-40.12-18.35-17.59 5.55 17.94 19.03 78.82 62 84.94 59.95 2.63-0.87 8.17-11.16 12.31-22.85zm-44.88-79.09c-4.14-4.14-7.53-10.76-7.53-14.7 0-10.97 24.07-40.05 33.15-40.05 21.48 0 27.09 34.36 8.46 51.86-13.12 12.32-23.74 13.22-34.08 2.89zm131.4 50.36c0-2.48-2.16-4.51-4.79-4.51-2.64 0-4.79 3.36-4.79 7.47 0 4.1 2.15 6.13 4.79 4.5 2.63-1.62 4.79-4.98 4.79-7.46zm-28.74-16.77c0-1.16-2.16-2.11-4.8-2.11-2.63 0-4.79 2.28-4.79 5.07s2.16 3.74 4.79 2.11c2.64-1.63 4.8-3.91 4.8-5.07z"/>
 </g>
</svg>
